<?xml version="1.0" encoding="UTF-8" standalone="no"?>
<svg
   width="683"
   height="687"
   viewBox="0 0 683 687"
   fill="none"
   version="1.1"
   id="svg18"
   xmlns="http://www.w3.org/2000/svg"
   xmlns:svg="http://www.w3.org/2000/svg">
  <defs
     id="defs22" />
  <circle
     cx="120.251"
     cy="360.728"
     r="3.42089"
     transform="rotate(-45 120.251 360.728)"
     fill="#1E1848"
     id="circle10" />
  <path
     fill-rule="evenodd"
     clip-rule="evenodd"
     d="M123.42 354.871L142.252 336.039C129.267 324.447 109.331 324.882 96.8682 337.345C84.4052 349.808 83.9699 369.744 95.5623 382.729L114.536 363.755C113.015 361.267 113.331 357.972 115.484 355.819C117.637 353.666 120.932 353.35 123.42 354.871Z"
     fill="#1E1848"
     id="path12" />
  <path
     fill-rule="evenodd"
     clip-rule="evenodd"
     d="M117.044 366.623L98.2121 385.455C111.197 397.047 131.133 396.612 143.596 384.149C156.059 371.686 156.495 351.75 144.902 338.765L125.928 357.739C127.449 360.227 127.133 363.522 124.98 365.675C122.827 367.828 119.532 368.144 117.044 366.623Z"
     fill="#1E1848"
     id="path14" />
  <path
     d="M17.4662 398V320.24H42.1382C46.8102 320.24 50.6182 321.136 53.5622 322.928C56.5062 324.656 58.6822 327.184 60.0902 330.512C61.5622 333.84 62.2982 337.872 62.2982 342.608C62.2982 348.176 61.3382 352.528 59.4182 355.664C57.5622 358.8 55.0022 361.04 51.7382 362.384C48.4742 363.664 44.7302 364.304 40.5062 364.304H33.3062V398H17.4662ZM33.3062 353.168H38.8742C41.1782 353.168 42.9382 352.816 44.1542 352.112C45.4342 351.344 46.2982 350.16 46.7462 348.56C47.1942 346.96 47.4182 344.912 47.4182 342.416C47.4182 340.048 47.2262 338.064 46.8422 336.464C46.5222 334.864 45.7542 333.616 44.5382 332.72C43.3222 331.824 41.4022 331.376 38.7782 331.376H33.3062V353.168ZM176.035 398V320.24H191.875V353.072L205.891 320.24H221.251L206.659 355.184L222.307 398H206.371L194.371 363.152L191.875 367.568V398H176.035ZM248.204 398V320.24H282.092V331.184H264.044V351.824H277.964V362.864H264.044V387.248H282.284V398H248.204ZM352.697 398V320.24H372.377C375.769 320.24 378.905 320.528 381.785 321.104C384.665 321.68 387.193 322.704 389.369 324.176C391.609 325.648 393.305 327.696 394.457 330.32C395.673 332.88 396.281 336.24 396.281 340.4C396.281 343.536 395.833 346.224 394.937 348.464C394.041 350.64 392.761 352.368 391.097 353.648C389.433 354.928 387.385 355.792 384.953 356.24C387.961 356.688 390.489 357.712 392.537 359.312C394.585 360.912 396.121 363.024 397.145 365.648C398.169 368.272 398.681 371.44 398.681 375.152C398.681 379.056 398.169 382.448 397.145 385.328C396.185 388.208 394.745 390.576 392.825 392.432C390.905 394.288 388.537 395.696 385.721 396.656C382.905 397.552 379.641 398 375.929 398H352.697ZM368.537 386.864H372.953C376.921 386.864 379.641 385.872 381.113 383.888C382.649 381.904 383.417 378.928 383.417 374.96C383.417 371.888 383.065 369.456 382.361 367.664C381.657 365.808 380.505 364.464 378.905 363.632C377.369 362.736 375.289 362.288 372.665 362.288H368.537V386.864ZM368.537 351.632H372.473C375.225 351.632 377.305 351.248 378.713 350.48C380.121 349.648 381.081 348.432 381.593 346.832C382.169 345.168 382.457 343.152 382.457 340.784C382.457 338.416 382.041 336.528 381.209 335.12C380.441 333.648 379.225 332.592 377.561 331.952C375.961 331.312 373.913 330.992 371.417 330.992H368.537V351.632ZM427.022 398V320.24H442.862V387.248H461.102V398H427.022ZM487.754 398V320.24H521.642V331.184H503.594V351.824H517.514V362.864H503.594V387.248H521.834V398H487.754ZM549.047 398V320.24H560.087L577.367 360.752V320.24H590.423V398H579.863L562.583 354.992V398H549.047ZM621.404 398V320.24H640.412C647.004 320.24 652.124 321.104 655.772 322.832C659.484 324.496 662.108 327.152 663.644 330.8C665.18 334.384 665.948 338.992 665.948 344.624V372.944C665.948 378.704 665.18 383.44 663.644 387.152C662.108 390.864 659.516 393.616 655.868 395.408C652.284 397.136 647.26 398 640.796 398H621.404ZM637.244 386.96H640.604C643.548 386.96 645.628 386.512 646.844 385.616C648.124 384.656 648.924 383.28 649.244 381.488C649.564 379.632 649.724 377.36 649.724 374.672V342.608C649.724 339.92 649.5 337.776 649.052 336.176C648.668 334.512 647.836 333.296 646.556 332.528C645.34 331.76 643.324 331.376 640.508 331.376H637.244V386.96Z"
     fill="#D41E45"
     id="path16" />
</svg>
