<?xml version="1.0" encoding="UTF-8" standalone="no"?>
<svg
   width="683"
   height="687"
   viewBox="0 0 683 687"
   fill="none"
   version="1.1"
   id="svg18"
   xmlns="http://www.w3.org/2000/svg"
   xmlns:svg="http://www.w3.org/2000/svg">
  <defs
     id="defs22" />
  <path
     d="M341.485 82.0981L394.781 141.023L395.213 141.501L395.828 141.304L471.231 117.117L488.14 194.998L488.276 195.624L488.902 195.762L566.217 212.795L542.201 288.765L542.009 289.373L542.478 289.804L600.986 343.5L542.478 397.197L542.009 397.628L542.201 398.235L566.217 474.205L488.902 491.238L488.276 491.376L488.14 492.003L471.231 569.883L395.828 545.696L395.213 545.499L394.781 545.977L341.485 604.902L288.19 545.977L287.757 545.499L287.143 545.696L211.739 569.883L194.83 492.003L194.694 491.376L194.068 491.238L116.753 474.205L140.769 398.235L140.961 397.628L140.492 397.197L81.9845 343.5L140.492 289.804L140.961 289.373L140.769 288.765L116.753 212.795L194.068 195.762L194.694 195.624L194.83 194.998L211.739 117.117L287.143 141.304L287.757 141.501L288.19 141.023L341.485 82.0981Z"
     stroke="#EEB2BF"
     stroke-width="2"
     id="path2" />
  <path
     d="M242.156 102.006L313.785 135.894L314.366 136.169L314.857 135.751L375.329 84.3301L420.544 149.76L420.908 150.287L421.538 150.173L499.436 136.098L506.117 215.54L506.171 216.177L506.769 216.395L581.223 243.442L547.576 315.606L547.306 316.186L547.715 316.675L598.768 377.598L533.814 423.144L533.289 423.513L533.401 424.145L547.374 502.614L468.52 509.343L467.879 509.398L467.662 510.005L440.815 584.994L369.185 551.106L368.605 550.831L368.114 551.249L307.642 602.67L262.427 537.24L262.063 536.713L261.433 536.827L183.534 550.902L176.853 471.46L176.799 470.823L176.201 470.605L101.748 443.558L135.394 371.394L135.665 370.814L135.255 370.325L84.202 309.402L149.156 263.856L149.682 263.487L149.569 262.855L135.596 184.386L214.451 177.657L215.091 177.602L215.309 176.995L242.156 102.006Z"
     stroke="#EEB2BF"
     stroke-width="2"
     id="path4" />
  <path
     d="M306.201 90.7473L366.774 142.043L367.266 142.459L367.849 142.182L439.408 108.148L466.408 183.087L466.625 183.69L467.264 183.743L546.137 190.311L532.321 268.816L532.21 269.444L532.732 269.808L597.784 315.226L546.852 376.255L546.444 376.744L546.714 377.321L580.506 449.418L506.112 476.616L505.51 476.836L505.458 477.475L498.937 556.926L421.018 543.011L420.383 542.898L420.017 543.43L374.938 608.946L314.365 557.65L313.873 557.234L313.29 557.511L241.731 591.546L214.731 516.607L214.514 516.004L213.875 515.951L135.002 509.383L148.818 430.878L148.928 430.25L148.406 429.885L83.3548 384.468L134.287 323.439L134.695 322.949L134.425 322.372L100.632 250.275L175.026 223.078L175.629 222.857L175.681 222.218L182.201 142.768L260.121 156.682L260.756 156.796L261.122 156.264L306.201 90.7473Z"
     stroke="#EEB2BF"
     stroke-width="2"
     id="path6" />
  <path
     d="M408.649 91.005L444.989 161.818L445.284 162.393L445.927 162.362L524.977 158.658L521.299 238.294L521.269 238.934L521.839 239.231L592.142 275.841L549.426 342.96L549.084 343.498L549.427 344.036L592.143 411.156L521.834 447.769L521.27 448.063L521.299 448.7L524.977 528.343L445.921 524.638L445.281 524.608L444.988 525.178L408.645 595.996L342.025 552.974L341.482 552.624L340.942 552.973L274.322 595.995L237.982 525.182L237.687 524.608L237.043 524.638L157.994 528.342L161.671 448.707L161.701 448.066L161.132 447.77L90.8279 411.16L133.544 344.04L133.886 343.503L133.543 342.964L90.8268 275.844L161.136 239.231L161.701 238.937L161.671 238.3L157.993 158.658L237.05 162.362L237.69 162.392L237.982 161.822L274.325 91.0039L340.946 134.027L341.488 134.377L342.028 134.028L408.649 91.005Z"
     stroke="#EEB2BF"
     stroke-width="2"
     id="path8" />
</svg>
