<svg width="40" height="40" viewBox="0 0 40 40" fill="none" xmlns="http://www.w3.org/2000/svg">
<circle cx="19.7524" cy="19.7365" r="1.44487" transform="rotate(-45 19.7524 19.7365)" fill="#1E1848"/>
<path fill-rule="evenodd" clip-rule="evenodd" d="M21.0909 17.2628L29.045 9.30865C23.5606 4.41237 15.1402 4.59623 9.87623 9.86021C4.61224 15.1242 4.42839 23.5446 9.32466 29.029L17.3387 21.015C16.6962 19.9641 16.8296 18.5725 17.7391 17.6631C18.6485 16.7537 20.04 16.6203 21.0909 17.2628Z" fill="#1E1848"/>
<path fill-rule="evenodd" clip-rule="evenodd" d="M22.1502 18.474L30.1642 10.4599C35.0605 15.9444 34.8766 24.3648 29.6126 29.6287C24.3487 34.8927 15.9283 35.0766 10.4438 30.1803L18.398 22.2262C19.4489 22.8687 20.8404 22.7352 21.7498 21.8258C22.6592 20.9164 22.7927 19.5249 22.1502 18.474Z" fill="#1E1848"/>
</svg>
